<svg width="56" height="132" viewBox="0 0 56 132" fill="none" xmlns="http://www.w3.org/2000/svg">
<path d="M23.2722 84.4699C23.6148 84.1155 23.8813 83.6843 24.0529 83.2067C24.2245 82.729 24.297 82.2166 24.2653 81.7054C24.2336 81.1943 24.0985 80.6969 23.8695 80.2482C23.6406 79.7995 23.3232 79.4105 22.94 79.1085L17.7038 33.5351L10.9387 35.7069L18.2423 80.0577C17.8152 80.7866 17.6505 81.6593 17.7795 82.5105C17.9085 83.3617 18.3222 84.1322 18.9422 84.676C19.5622 85.2199 20.3454 85.4993 21.1435 85.4613C21.9415 85.4233 22.6989 85.0705 23.2722 84.4699Z" fill="#FFB8B8"/>
<path d="M30.5431 128.03H34.4998L36.3831 111.551H30.5431V128.03Z" fill="#FFB8B8"/>
<path d="M42.1308 131.997H29.6953V126.809H37.7657C38.9234 126.809 40.0337 127.306 40.8523 128.19C41.6709 129.074 42.1308 130.272 42.1308 131.522V131.997Z" fill="#00BFA6"/>
<path d="M2.18097 121.376L5.88968 122.865L12.9752 108.129L7.50182 105.931L2.18097 121.376Z" fill="#FFB8B8"/>
<path d="M11.7609 129.456L0.105493 124.774L1.78054 119.912L9.34464 122.95C10.4297 123.386 11.31 124.269 11.7919 125.406C12.2737 126.542 12.3177 127.839 11.9141 129.011L11.7608 129.456L11.7609 129.456Z" fill="#00BFA6"/>
<path d="M22.445 21.7044C26.577 21.7044 29.9266 18.0878 29.9266 13.6264C29.9266 9.165 26.577 5.54834 22.445 5.54834C18.3131 5.54834 14.9635 9.165 14.9635 13.6264C14.9635 18.0878 18.3131 21.7044 22.445 21.7044Z" fill="#FFB8B8"/>
<path d="M10.743 34.3586C10.5087 26.9181 17.7512 21.7563 23.8448 25.2401C24.6212 25.684 32.6376 33.0376 32.9397 37.6043C33.2418 42.1711 33.846 49.6735 33.846 49.6735L37 116H29.5L23.8448 84L10.743 116.87L4 114L17.8344 57.8284C17.8344 57.8284 11.098 45.6345 10.743 34.3586Z" fill="#2F2E41"/>
<path d="M10.8857 36.9489L12.0496 53.287C12.0618 53.4576 12.1331 53.6169 12.2494 53.7332C12.3657 53.8495 12.5183 53.9141 12.6768 53.9141H17.7982C17.9017 53.9141 18.0036 53.8865 18.0949 53.8338C18.1862 53.7811 18.264 53.7049 18.3214 53.6119C18.3789 53.519 18.4142 53.4122 18.4243 53.301C18.4344 53.1897 18.4188 53.0775 18.3791 52.9743L12.0937 36.6363C12.0363 36.4871 11.9316 36.3649 11.7982 36.2916C11.6649 36.2183 11.5117 36.1987 11.3662 36.2364C11.2207 36.274 11.0924 36.3665 11.0043 36.4971C10.9163 36.6277 10.8742 36.7879 10.8857 36.9489Z" fill="#00BFA6"/>
<path d="M20.5533 27.8185C20.5533 27.8185 18.4386 32.3852 20.5533 40.5401C22.6681 48.6949 24.1786 55.545 24.1786 55.545C24.1786 55.545 29.0123 52.2831 31.1271 53.2616C33.2418 54.2402 27.7818 31.523 27.7818 31.523C27.7818 31.523 24.4807 23.9042 20.5533 27.8185Z" fill="#00BFA6"/>
<path d="M24.2006 14.8869C24.3017 13.2107 26.2601 13.1533 27.8157 13.1374C29.3713 13.1215 31.2311 13.1815 32.1113 11.7965C32.693 10.8812 32.5819 9.61057 32.1014 8.62925C31.6208 7.64794 30.8303 6.8932 30.0527 6.16712C28.0449 4.29258 25.9757 2.43291 23.5653 1.23308C21.1548 0.0332438 18.3301 -0.451567 15.8303 0.511592C12.7594 1.69475 8.60807 7.78519 8.24959 11.2844C7.89111 14.7835 9.18627 18.3507 11.3695 20.9655C13.5527 23.5803 18.5496 22.5253 21.6943 23.4555C19.7825 20.5339 21.0427 15.2254 24.1053 13.8612L24.2006 14.8869Z" fill="#2F2E41"/>
<path d="M50.9622 34.5693C50.6808 34.3743 50.3832 34.2597 50.0904 34.2334C49.7977 34.2071 49.5168 34.2699 49.2677 34.4173C49.0186 34.5647 48.8073 34.7932 48.6486 35.0866C48.4899 35.38 48.3878 35.7312 48.3493 36.1155L26.8578 51.225C26.8578 51.225 24.5878 59.9839 31.5825 54.412C38.5771 48.8401 50.2303 39.7194 50.2303 39.7194C50.7264 39.8942 51.2169 39.8208 51.609 39.5132C52.0011 39.2055 52.2675 38.685 52.3577 38.0502C52.4479 37.4154 52.3557 36.7104 52.0985 36.0689C51.8413 35.4273 51.437 34.8938 50.9622 34.5693Z" fill="#FFB8B8"/>
</svg>
