<svg width="56" height="132" viewBox="0 0 56 132" fill="none" xmlns="http://www.w3.org/2000/svg">
<path d="M32.3464 84.4699C32.0037 84.1155 31.7373 83.6843 31.5657 83.2067C31.3941 82.729 31.3216 82.2166 31.3533 81.7054C31.3849 81.1943 31.52 80.6969 31.749 80.2482C31.978 79.7995 32.2953 79.4105 32.6786 79.1085L37.9147 33.5351L44.6798 35.7069L37.3763 80.0577C37.8034 80.7866 37.968 81.6593 37.839 82.5105C37.71 83.3617 37.2963 84.1322 36.6763 84.676C36.0563 85.2199 35.2731 85.4993 34.4751 85.4613C33.677 85.4233 32.9196 85.0705 32.3464 84.4699Z" fill="#FFB8B8"/>
<path d="M26.0754 128.03H22.1187L20.2354 111.551H26.0754V128.03Z" fill="#FFB8B8"/>
<path d="M14.4877 131.997H26.9232V126.809H18.8528C17.6951 126.809 16.5848 127.306 15.7662 128.19C14.9476 129.074 14.4877 130.272 14.4877 131.522V131.997Z" fill="#2F2E41"/>
<path d="M53.4376 121.376L49.7289 122.865L42.6433 108.129L48.1167 105.931L53.4376 121.376Z" fill="#FFB8B8"/>
<path d="M43.8577 129.456L55.5131 124.774L53.838 119.912L46.2739 122.95C45.1888 123.386 44.3085 124.269 43.8267 125.406C43.3448 126.542 43.3009 127.839 43.7045 129.011L43.8577 129.456L43.8577 129.456Z" fill="#2F2E41"/>
<path d="M33.1735 21.7044C29.0416 21.7044 25.692 18.0878 25.692 13.6264C25.692 9.165 29.0416 5.54834 33.1735 5.54834C37.3054 5.54834 40.655 9.165 40.655 13.6264C40.655 18.0878 37.3054 21.7044 33.1735 21.7044Z" fill="#FFB8B8"/>
<path d="M44.8756 34.3586C45.1098 26.9181 37.8673 21.7563 31.7737 25.2401C30.9974 25.684 22.9809 33.0376 22.6788 37.6043C22.3767 42.1711 21.7725 49.6735 21.7725 49.6735L13.3135 117.848L31.4399 116.87H35L41.033 117.206L55.3064 112.303L37.7842 57.8284C37.7842 57.8284 44.5205 45.6345 44.8756 34.3586Z" fill="#00BFA6"/>
<path d="M44.7329 36.9489L43.5689 53.287C43.5568 53.4576 43.4854 53.6169 43.3691 53.7332C43.2529 53.8495 43.1002 53.9141 42.9417 53.9141H37.8203C37.7168 53.9141 37.6149 53.8865 37.5236 53.8338C37.4324 53.7811 37.3546 53.7049 37.2971 53.6119C37.2397 53.519 37.2043 53.4122 37.1943 53.301C37.1842 53.1897 37.1997 53.0775 37.2394 52.9743L43.5248 36.6363C43.5822 36.4871 43.687 36.3649 43.8203 36.2916C43.9537 36.2183 44.1068 36.1987 44.2523 36.2364C44.3978 36.274 44.5261 36.3665 44.6142 36.4971C44.7023 36.6277 44.7444 36.7879 44.7329 36.9489Z" fill="#009C88"/>
<path d="M35.0652 27.8185C35.0652 27.8185 37.18 32.3852 35.0652 40.5401C32.9505 48.6949 31.4399 55.545 31.4399 55.545C31.4399 55.545 26.6062 52.2831 24.4915 53.2616C22.3767 54.2402 27.8367 31.523 27.8367 31.523C27.8367 31.523 31.1378 23.9042 35.0652 27.8185Z" fill="#009C88"/>
<path d="M31.4179 14.8869C31.3169 13.2107 29.3584 13.1533 27.8028 13.1374C26.2472 13.1215 24.3874 13.1815 23.5072 11.7965C22.9255 10.8812 23.0366 9.61057 23.5172 8.62925C23.9977 7.64794 24.7882 6.8932 25.5659 6.16712C27.5736 4.29258 29.6428 2.43291 32.0533 1.23308C34.4637 0.0332438 37.2884 -0.451567 39.7883 0.511592C42.8592 1.69475 47.0105 7.78519 47.369 11.2844C47.7274 14.7835 49.5522 33.8852 47.3689 36.5C27.8028 75 37.0689 22.5253 33.9242 23.4555C35.836 20.5339 34.5759 15.2254 31.5132 13.8612L31.4179 14.8869Z" fill="#2F2E41"/>
<path d="M4.65633 34.5693C4.93777 34.3743 5.23534 34.2597 5.52811 34.2334C5.82088 34.2071 6.10171 34.2699 6.35082 34.4173C6.59993 34.5647 6.81128 34.7932 6.96995 35.0866C7.12863 35.38 7.23078 35.7312 7.26922 36.1155L28.7607 51.225C28.7607 51.225 31.0308 59.9839 24.0361 54.412C17.0414 48.8401 5.38823 39.7194 5.38823 39.7194C4.89217 39.8942 4.40162 39.8208 4.00953 39.5132C3.61743 39.2055 3.35103 38.685 3.26082 38.0502C3.17061 37.4154 3.26284 36.7104 3.52004 36.0689C3.77725 35.4273 4.18154 34.8938 4.65633 34.5693Z" fill="#FFB8B8"/>
</svg>
