<svg width="198" height="136" viewBox="0 0 198 136" fill="none" xmlns="http://www.w3.org/2000/svg">
<path opacity="0.1" d="M50.3687 54.4931H29.3977C28.6551 54.4931 28.053 55.0883 28.053 55.8226V60.2355C28.053 60.9698 28.6551 61.5651 29.3977 61.5651H50.3687C51.1114 61.5651 51.7135 60.9698 51.7135 60.2355V55.8226C51.7135 55.0883 51.1114 54.4931 50.3687 54.4931Z" fill="#6C63FF"/>
<path opacity="0.1" d="M75.1296 61.5668H54.1586C53.4159 61.5668 52.8139 62.1621 52.8139 62.8964V67.3093C52.8139 68.0436 53.4159 68.6388 54.1586 68.6388H75.1296C75.8723 68.6388 76.4743 68.0436 76.4743 67.3093V62.8964C76.4743 62.1621 75.8723 61.5668 75.1296 61.5668Z" fill="#6C63FF"/>
<path opacity="0.1" d="M99.8923 68.6389H78.9213C78.1786 68.6389 77.5765 69.2341 77.5765 69.9684V74.3813C77.5765 75.1156 78.1786 75.7109 78.9213 75.7109H99.8923C100.635 75.7109 101.237 75.1156 101.237 74.3813V69.9684C101.237 69.2341 100.635 68.6389 99.8923 68.6389Z" fill="#6C63FF"/>
<path opacity="0.1" d="M50.3687 43.885H29.3977C28.6551 43.885 28.053 44.4803 28.053 45.2146V49.6275C28.053 50.3618 28.6551 50.9571 29.3977 50.9571H50.3687C51.1114 50.9571 51.7135 50.3618 51.7135 49.6275V45.2146C51.7135 44.4803 51.1114 43.885 50.3687 43.885Z" fill="#6C63FF"/>
<path opacity="0.1" d="M75.1296 50.9571H54.1586C53.4159 50.9571 52.8139 51.5523 52.8139 52.2866V56.6995C52.8139 57.4338 53.4159 58.0291 54.1586 58.0291H75.1296C75.8723 58.0291 76.4743 57.4338 76.4743 56.6995V52.2866C76.4743 51.5523 75.8723 50.9571 75.1296 50.9571Z" fill="#6C63FF"/>
<path opacity="0.1" d="M99.8923 58.0308H78.9213C78.1786 58.0308 77.5765 58.6261 77.5765 59.3604V63.7733C77.5765 64.5076 78.1786 65.1028 78.9213 65.1028H99.8923C100.635 65.1028 101.237 64.5076 101.237 63.7733V59.3604C101.237 58.6261 100.635 58.0308 99.8923 58.0308Z" fill="#6C63FF"/>
<path opacity="0.1" d="M127.404 54.4931H106.433C105.69 54.4931 105.088 55.0883 105.088 55.8226V60.2355C105.088 60.9698 105.69 61.5651 106.433 61.5651H127.404C128.147 61.5651 128.749 60.9698 128.749 60.2355V55.8226C128.749 55.0883 128.147 54.4931 127.404 54.4931Z" fill="#6C63FF"/>
<path opacity="0.1" d="M152.165 61.5668H131.194C130.451 61.5668 129.849 62.1621 129.849 62.8964V67.3093C129.849 68.0436 130.451 68.6388 131.194 68.6388H152.165C152.908 68.6388 153.51 68.0436 153.51 67.3093V62.8964C153.51 62.1621 152.908 61.5668 152.165 61.5668Z" fill="#6C63FF"/>
<path opacity="0.1" d="M176.928 68.6389H155.957C155.214 68.6389 154.612 69.2341 154.612 69.9684V74.3813C154.612 75.1156 155.214 75.7109 155.957 75.7109H176.928C177.67 75.7109 178.272 75.1156 178.272 74.3813V69.9684C178.272 69.2341 177.67 68.6389 176.928 68.6389Z" fill="#6C63FF"/>
<path opacity="0.1" d="M127.404 43.885H106.433C105.69 43.885 105.088 44.4803 105.088 45.2146V49.6275C105.088 50.3618 105.69 50.9571 106.433 50.9571H127.404C128.147 50.9571 128.749 50.3618 128.749 49.6275V45.2146C128.749 44.4803 128.147 43.885 127.404 43.885Z" fill="#6C63FF"/>
<path opacity="0.1" d="M152.165 50.9571H131.194C130.451 50.9571 129.849 51.5523 129.849 52.2866V56.6995C129.849 57.4338 130.451 58.0291 131.194 58.0291H152.165C152.908 58.0291 153.51 57.4338 153.51 56.6995V52.2866C153.51 51.5523 152.908 50.9571 152.165 50.9571Z" fill="#6C63FF"/>
<path opacity="0.1" d="M176.928 58.0308H155.957C155.214 58.0308 154.612 58.6261 154.612 59.3604V63.7733C154.612 64.5076 155.214 65.1028 155.957 65.1028H176.928C177.67 65.1028 178.272 64.5076 178.272 63.7733V59.3604C178.272 58.6261 177.67 58.0308 176.928 58.0308Z" fill="#6C63FF"/>
<path opacity="0.1" d="M50.3687 29.7393H29.3977C28.6551 29.7393 28.053 30.3345 28.053 31.0688V35.4817C28.053 36.216 28.6551 36.8113 29.3977 36.8113H50.3687C51.1114 36.8113 51.7135 36.216 51.7135 35.4817V31.0688C51.7135 30.3345 51.1114 29.7393 50.3687 29.7393Z" fill="#6C63FF"/>
<path opacity="0.1" d="M75.1296 36.8113H54.1586C53.4159 36.8113 52.8139 37.4065 52.8139 38.1408V42.5537C52.8139 43.288 53.4159 43.8833 54.1586 43.8833H75.1296C75.8723 43.8833 76.4743 43.288 76.4743 42.5537V38.1408C76.4743 37.4065 75.8723 36.8113 75.1296 36.8113Z" fill="#6C63FF"/>
<path opacity="0.1" d="M99.8923 43.885H78.9213C78.1786 43.885 77.5765 44.4803 77.5765 45.2146V49.6275C77.5765 50.3618 78.1786 50.9571 78.9213 50.9571H99.8923C100.635 50.9571 101.237 50.3618 101.237 49.6275V45.2146C101.237 44.4803 100.635 43.885 99.8923 43.885Z" fill="#6C63FF"/>
<path opacity="0.1" d="M50.3687 19.1295H29.3977C28.6551 19.1295 28.053 19.7247 28.053 20.459V24.8719C28.053 25.6062 28.6551 26.2015 29.3977 26.2015H50.3687C51.1114 26.2015 51.7135 25.6062 51.7135 24.8719V20.459C51.7135 19.7247 51.1114 19.1295 50.3687 19.1295Z" fill="#6C63FF"/>
<path opacity="0.1" d="M75.1296 26.2033H54.1586C53.4159 26.2033 52.8139 26.7986 52.8139 27.5329V31.9457C52.8139 32.68 53.4159 33.2753 54.1586 33.2753H75.1296C75.8723 33.2753 76.4743 32.68 76.4743 31.9457V27.5329C76.4743 26.7986 75.8723 26.2033 75.1296 26.2033Z" fill="#6C63FF"/>
<path opacity="0.1" d="M99.8923 33.2753H78.9213C78.1786 33.2753 77.5765 33.8705 77.5765 34.6048V39.0177C77.5765 39.752 78.1786 40.3473 78.9213 40.3473H99.8923C100.635 40.3473 101.237 39.752 101.237 39.0177V34.6048C101.237 33.8705 100.635 33.2753 99.8923 33.2753Z" fill="#6C63FF"/>
<path opacity="0.1" d="M127.404 29.7393H106.433C105.69 29.7393 105.088 30.3345 105.088 31.0688V35.4817C105.088 36.216 105.69 36.8113 106.433 36.8113H127.404C128.147 36.8113 128.749 36.216 128.749 35.4817V31.0688C128.749 30.3345 128.147 29.7393 127.404 29.7393Z" fill="#6C63FF"/>
<path opacity="0.1" d="M152.165 36.8113H131.194C130.451 36.8113 129.849 37.4065 129.849 38.1408V42.5537C129.849 43.288 130.451 43.8833 131.194 43.8833H152.165C152.908 43.8833 153.51 43.288 153.51 42.5537V38.1408C153.51 37.4065 152.908 36.8113 152.165 36.8113Z" fill="#6C63FF"/>
<path opacity="0.1" d="M176.928 43.885H155.957C155.214 43.885 154.612 44.4803 154.612 45.2146V49.6275C154.612 50.3618 155.214 50.9571 155.957 50.9571H176.928C177.67 50.9571 178.272 50.3618 178.272 49.6275V45.2146C178.272 44.4803 177.67 43.885 176.928 43.885Z" fill="#6C63FF"/>
<path opacity="0.1" d="M127.404 19.1295H106.433C105.69 19.1295 105.088 19.7247 105.088 20.459V24.8719C105.088 25.6062 105.69 26.2015 106.433 26.2015H127.404C128.147 26.2015 128.749 25.6062 128.749 24.8719V20.459C128.749 19.7247 128.147 19.1295 127.404 19.1295Z" fill="#6C63FF"/>
<path opacity="0.1" d="M152.165 26.2033H131.194C130.451 26.2033 129.849 26.7986 129.849 27.5329V31.9457C129.849 32.68 130.451 33.2753 131.194 33.2753H152.165C152.908 33.2753 153.51 32.68 153.51 31.9457V27.5329C153.51 26.7986 152.908 26.2033 152.165 26.2033Z" fill="#6C63FF"/>
<path opacity="0.1" d="M176.928 33.2753H155.957C155.214 33.2753 154.612 33.8705 154.612 34.6048V39.0177C154.612 39.752 155.214 40.3473 155.957 40.3473H176.928C177.67 40.3473 178.272 39.752 178.272 39.0177V34.6048C178.272 33.8705 177.67 33.2753 176.928 33.2753Z" fill="#6C63FF"/>
<path opacity="0.1" d="M99 136C153.676 136 198 128.028 198 118.195C198 108.361 153.676 100.389 99 100.389C44.3238 100.389 0 108.361 0 118.195C0 128.028 44.3238 136 99 136Z" fill="#6C63FF"/>
<path d="M43.4369 57.4421L35.1115 107.905L72.7569 103.968L71.128 99.6737L41.7175 102.089L48.5951 57.3526L43.4369 57.4421Z" fill="#3F3D56"/>
<path d="M33.6636 0.178947L84.3401 0L99 109.695L48.1426 116.495L33.6636 0.178947Z" fill="#3F3D56"/>
<path d="M39.1837 4.38422H80.0868L94.3848 106.384L52.2148 112.111L39.1837 4.38422Z" fill="white"/>
<path d="M77.7594 101.796C78.0164 102.283 78.2082 102.809 78.543 103.247C79.5204 104.539 81.3755 104.741 82.7673 105.584C82.8369 105.619 82.8943 105.674 82.932 105.742C82.9953 105.89 82.8541 106.046 82.7184 106.139C81.6632 106.871 80.2787 106.887 78.9883 106.878C78.5546 106.893 78.1207 106.852 77.6978 106.756C77.0155 106.577 76.4309 106.107 75.7576 105.915C75.4085 105.829 75.0512 105.779 74.6916 105.767L73.2781 105.672C72.9018 105.667 72.5291 105.598 72.1759 105.47C71.9999 105.403 71.8438 105.294 71.7223 105.151C71.6008 105.009 71.5177 104.838 71.4809 104.656C71.4411 104.359 71.5696 104.07 71.6456 103.781C71.8266 103.093 71.7705 102.263 72.3116 101.794C72.5346 101.625 72.7902 101.504 73.0627 101.436C74.0464 101.109 75.0506 100.844 76.0689 100.645C76.9069 100.483 77.3883 101.091 77.7594 101.796Z" fill="#3F3D56"/>
<path d="M61.7709 105.667C61.8071 106.048 61.818 106.484 61.5392 106.751C61.3657 106.894 61.156 106.986 60.933 107.019C59.5955 107.327 58.1041 107.349 56.9404 106.629C56.8193 106.561 56.7124 106.471 56.6255 106.363C56.5284 106.216 56.4734 106.046 56.4662 105.871C56.4246 105.364 56.582 104.865 56.725 104.376C57.0634 103.217 57.3204 102.036 57.4942 100.842C57.5087 100.744 60.9094 101.379 61.1357 101.712C61.4198 102.123 61.4216 103.111 61.4976 103.602C61.6123 104.286 61.7033 104.975 61.7709 105.667Z" fill="#3F3D56"/>
<path d="M74.4292 59.1009L75.3341 67.4202C75.5151 69.1202 75.7051 70.8292 75.5802 72.5345C75.4355 74.503 74.878 76.4714 75.1133 78.4219C75.2056 79.1806 75.4155 79.9251 75.4463 80.6892C75.4521 81.1973 75.4261 81.7053 75.3685 82.2102C74.9595 87.2583 76.2535 92.2671 76.9775 97.2794C77.0939 97.8976 77.1195 98.5293 77.0535 99.1547C76.9594 99.79 76.7711 100.624 77.3431 100.925L71.9714 102.85C71.2854 102 71.7397 100.678 71.6094 99.5985C71.4899 98.6269 70.9506 97.7607 70.6628 96.8249C70.4022 95.9838 70.3479 95.098 70.2628 94.2247C69.7941 89.4701 68.3552 84.8389 68.0186 80.0736C68.0078 79.6134 67.9471 79.1556 67.8376 78.7082C67.6566 78.1159 67.2946 77.5987 67.0304 77.0422C66.625 76.2065 66.4259 75.2903 66.2304 74.3848L65.0812 69.0612C63.9192 70.7719 63.9663 72.998 63.7364 75.0487C63.4143 77.9119 62.6939 80.7267 62.1076 83.5541C61.9713 84.1624 61.8692 84.7778 61.8017 85.3973C61.6497 87.0561 61.9519 88.7311 61.7908 90.3881C61.6098 92.3082 60.7936 94.1818 60.9909 96.1019C61.0994 97.1648 61.5121 98.1705 61.7908 99.2013C62.0695 100.232 62.2071 101.363 61.7818 102.345C60.2953 101.806 58.6984 101.631 57.1286 101.837C55.4038 100.092 55.0979 97.6587 54.9803 95.2161C54.8626 92.7735 55.1468 90.3273 54.8391 87.9079C54.7486 87.1921 54.6074 86.4942 54.5839 85.7802C54.5079 83.4915 55.621 81.3495 56.1748 79.1252C56.6732 77.1228 56.7208 75.0366 56.3141 73.0141C56.0427 71.6774 55.5757 70.38 55.4092 69.0254C55.183 67.1267 55.5667 65.2138 55.9522 63.3384C56.211 62.0733 56.468 60.8081 56.7612 59.5501C57.0761 58.1991 57.4507 56.8194 58.2923 55.7135C59.6389 53.9437 62.0297 53.1581 64.2649 53.3299C66.5001 53.5017 68.5869 54.5074 70.433 55.76C71.8879 56.7214 73.2285 57.8422 74.4292 59.1009Z" fill="#192534"/>
<path d="M68.424 27.2447C68.3225 27.406 68.252 27.5843 68.2159 27.7708C68.1706 28.1377 68.3969 28.4741 68.5779 28.7944C68.8098 29.2059 68.9879 29.6449 69.1082 30.1007C69.1943 30.3829 69.2208 30.6795 69.186 30.9722C69.1418 31.192 69.0624 31.4035 68.9507 31.5985C68.6014 32.2642 68.0838 32.8798 67.3797 33.1571C66.8345 33.3557 66.2399 33.3794 65.6803 33.2252C65.1243 33.0696 64.5988 32.8228 64.1256 32.495C63.7267 32.2451 63.368 31.9375 63.0614 31.5824C62.7686 31.1941 62.522 30.7738 62.3266 30.3298C61.9501 29.5514 61.5682 28.7193 61.637 27.8657C61.6406 27.7883 61.6552 27.7118 61.6804 27.6384C61.7392 27.5059 61.8213 27.3847 61.923 27.2805C62.6951 26.3758 63.091 25.2149 63.0306 24.0326L65.6676 24.6249C66.2486 24.7556 66.8295 24.8862 67.4033 25.049C67.8738 25.1833 68.5978 25.3694 68.9036 25.7845C69.2095 26.1997 68.6322 26.8654 68.424 27.2447Z" fill="#FBBEBE"/>
<path d="M67.0123 26.8009C69.6591 26.8009 71.8048 24.6794 71.8048 22.0624C71.8048 19.4454 69.6591 17.3239 67.0123 17.3239C64.3654 17.3239 62.2198 19.4454 62.2198 22.0624C62.2198 24.6794 64.3654 26.8009 67.0123 26.8009Z" fill="#FBBEBE"/>
<path d="M66.2413 31.6218C66.444 31.1834 66.882 30.906 67.282 30.6304C67.6819 30.3548 68.0874 30.0023 68.1652 29.5245C68.17 29.4165 68.1971 29.3105 68.2448 29.2132C68.3987 28.9841 68.7642 29.0986 68.9832 29.2668C69.5153 29.6766 69.8773 30.2582 70.2302 30.8255C70.6868 31.5153 71.0776 32.2456 71.3976 33.0068C71.9062 34.3328 71.9677 35.7805 72.0238 37.196C72.0745 38.4844 72.1234 39.7925 71.8066 41.0416C71.6076 41.8325 71.2637 42.6002 71.2438 43.4144C71.184 46.3724 70.1452 49.1998 70.0728 52.1578C70.0674 53.0131 70.1109 53.8681 70.2031 54.7185L70.3732 56.6386C67.7417 56.4895 65.1173 56.2611 62.5003 55.9533C62.4243 55.0693 62.1691 54.2121 61.9356 53.3567C60.9796 49.8597 60.3668 46.2797 60.1058 42.6664C59.9665 40.7481 59.8235 38.837 59.6081 36.9258C59.4144 35.1882 59.0344 33.4399 59.2624 31.7059C59.3818 30.9177 59.6325 30.1546 60.0045 29.4476C60.122 29.1659 60.3242 28.9267 60.5836 28.7622C60.7132 28.7003 60.8509 28.6563 60.9927 28.6316C61.403 28.5494 61.8194 28.5009 62.2378 28.4866C62.3401 28.4781 62.4431 28.4878 62.5419 28.5153C62.7182 28.6022 62.863 28.741 62.9564 28.9125C63.7627 30.1112 64.904 31.0524 66.2413 31.6218Z" fill="#F2F2F2"/>
<path d="M64.0188 31.2424C64.3554 31.7184 65.0685 31.8312 65.3798 32.3161C65.4847 32.5188 65.5643 32.7333 65.6169 32.955C65.807 33.5544 66.1907 34.0752 66.4241 34.6603C66.7608 35.5014 66.7698 36.4319 66.7734 37.3356C66.8065 38.0554 66.7506 38.7765 66.6069 39.483C66.4983 39.925 66.321 40.3455 66.1907 40.7821C65.9693 41.5246 65.8872 42.3009 65.9481 43.0726C65.9482 43.2394 65.9931 43.403 66.0784 43.5469C66.2012 43.6906 66.3614 43.7983 66.5418 43.8582C67.0721 44.0891 67.6277 44.3253 68.2069 44.2716C68.3257 44.2679 68.4408 44.2299 68.5381 44.1624C68.6052 44.102 68.6604 44.0298 68.701 43.9495L69.0629 43.3446C69.3905 42.7917 69.7326 42.1725 69.6059 41.5409C69.5139 41.2148 69.3756 40.9033 69.1951 40.6157C68.9637 40.1489 68.7666 39.6663 68.605 39.1716C68.0277 37.5306 67.4431 35.8664 67.3128 34.1342C67.2361 33.475 67.3104 32.8072 67.53 32.1801C67.7 31.7942 67.9137 31.4286 68.167 31.0903C68.1097 31.0143 68.0304 30.9573 67.9396 30.927C67.8487 30.8966 67.7507 30.8943 67.6585 30.9203C67.4764 30.9759 67.3001 31.0484 67.1318 31.1369C66.5997 31.3587 66.0097 31.2782 65.4721 31.1261C65.2622 31.0653 64.9292 30.8577 64.712 30.872C64.6378 30.881 64.0315 31.2639 64.0188 31.2424Z" fill="#6C63FF"/>
<path d="M68.2557 31.2227C68.1471 31.1368 67.9788 31.0581 67.8828 31.1583C67.8506 31.2018 67.8273 31.251 67.8141 31.3033C67.7199 31.5538 67.443 31.6773 67.1915 31.7739C66.9399 31.8705 66.6684 31.9242 66.5164 31.7399C66.4684 31.6681 66.4448 31.5831 66.449 31.4972C66.4533 31.4113 66.4851 31.3289 66.5399 31.2621C66.6512 31.1295 66.7854 31.0174 66.9363 30.931C67.7688 30.35 68.3359 29.4678 68.5145 28.4759C68.7479 28.6594 68.9025 28.9234 68.947 29.2149C69.0068 29.4995 69.014 29.7929 69.0737 30.0775C69.1624 30.4855 69.3597 30.8666 69.4049 31.28C69.4285 31.5001 69.4049 31.722 69.4049 31.9421C69.4131 32.1573 69.4385 32.3715 69.481 32.5827C69.0574 32.1389 68.7588 31.6182 68.2557 31.2227Z" fill="#F2F2F2"/>
<path d="M64.5925 30.0077C64.4115 29.8377 64.2305 29.6766 64.0496 29.5031C63.2554 28.7366 62.6557 27.7954 62.2994 26.7562C62.0678 26.9352 61.8126 27.1714 61.8071 27.472C61.8278 27.6847 61.9108 27.8869 62.046 28.0536C62.7304 29.1193 63.1823 30.3145 63.3727 31.5628C63.4704 31.4117 63.6059 31.2881 63.7659 31.2038C63.926 31.1195 64.1053 31.0773 64.2866 31.0814C64.5726 31.0814 65.8558 31.833 65.9481 31.6433C66.0838 31.3462 64.8097 30.2099 64.5925 30.0077Z" fill="#F2F2F2"/>
<path d="M68.634 28.5833C70.3365 30.259 72.4206 31.5065 74.7115 32.2213C74.9393 32.2704 75.1505 32.3763 75.3251 32.529C75.4555 32.6901 75.5432 32.8808 75.5803 33.0838C76.0219 34.7909 76.1703 36.5572 76.3169 38.3126C76.3553 38.603 76.3492 38.8974 76.2988 39.1859C76.192 39.6547 75.8554 40.0341 75.5242 40.3866C74.4853 41.4872 73.2998 42.6378 73.1243 44.1338C73.1109 44.4222 73.0764 44.7093 73.0211 44.9927C72.9306 45.3256 72.7297 45.6191 72.6066 45.9429C72.0021 47.5374 73.3686 49.4682 72.5361 50.9535C72.9867 51.8096 73.2959 52.7315 73.4519 53.6842C73.4798 54.0454 73.5634 54.4002 73.6998 54.7364C73.9478 55.2482 74.4581 55.5739 74.8599 55.9891C76.0852 57.2309 76.2354 59.1314 76.3078 60.8654C76.3531 61.8424 76.3386 62.9644 75.5839 63.6051C75.1477 63.9791 74.5522 64.1007 73.9821 64.1938C73.2238 64.3191 72.3985 64.4085 71.727 64.0381C71.2456 63.7733 70.918 63.3098 70.6049 62.8624C70.0113 62.0088 69.4158 61.1571 68.853 60.282C67.9625 58.9023 67.1227 57.3258 67.3797 55.7081C67.3073 57.3634 66.9544 59.0312 66.1327 60.4735C65.3111 61.9158 63.988 63.1201 62.3827 63.5961C60.7773 64.0721 58.9005 63.7357 57.7042 62.5761C57.3136 62.1786 56.9783 61.7315 56.7069 61.2465C56.026 60.0935 55.529 58.8434 55.2337 57.5405C55.1559 57.2023 55.098 56.8247 55.2699 56.5223C55.3514 56.3792 55.4762 56.2664 55.5613 56.1251C55.8473 55.6437 55.5722 55.0371 55.2952 54.5467C54.8735 54.5861 54.5713 54.0958 54.6093 53.6771C54.6473 53.2583 54.9007 52.8951 55.0799 52.5139C55.6047 51.3901 55.4889 50.082 55.2355 48.8705C54.9821 47.6591 54.6039 46.4547 54.6328 45.2182C54.6636 43.9101 53.7116 42.7326 52.9859 41.6393C52.5804 41.0237 52.1081 40.4511 51.7551 39.8051C51.0193 38.4456 50.8492 36.8559 51.281 35.3743C51.5344 34.6135 51.8668 33.8807 52.2728 33.1876L52.87 32.0799C52.9812 31.8152 53.1538 31.5801 53.3739 31.3936C53.594 31.2071 53.8554 31.0744 54.1369 31.0062L58.2689 29.3957C58.7972 29.2173 59.2988 28.9693 59.7602 28.6584C60.2651 28.2826 60.6416 27.7637 61.123 27.3628C61.1932 27.29 61.2773 27.2317 61.3706 27.1915C61.4638 27.1512 61.5643 27.1298 61.666 27.1284C62.0533 27.1624 62.1908 27.6456 62.2307 28.0232C62.3212 28.8678 62.9546 29.5836 63.17 30.4049C64.3355 34.9413 66.8024 39.125 67.4793 43.7562C68.2394 41.9506 68.9996 40.1415 69.9733 38.4415C70.1269 38.1974 70.256 37.9391 70.3588 37.6702C70.4757 37.2824 70.5192 36.8765 70.4873 36.4731C70.4384 35.3081 70.1253 34.17 69.8158 33.0444C69.414 31.5126 69.0521 30.1007 68.634 28.5833Z" fill="#3F3D56"/>
<path d="M76.5087 42.4445C76.5883 43.2068 76.6662 43.9709 76.8091 44.7243C76.9756 45.5958 77.229 46.4476 77.4806 47.2994C77.6035 47.7782 77.7795 48.2421 78.0055 48.6826C78.0874 48.8105 78.1525 48.9482 78.1991 49.0924C78.2878 49.4503 78.0851 49.8082 77.9982 50.1661C77.7376 51.2398 78.5195 52.4334 78.0272 53.4229C77.8788 53.7236 77.62 53.9723 77.5222 54.2944C77.4082 54.6648 77.5222 55.0603 77.582 55.4433C77.7358 56.5169 77.3648 57.6085 76.9992 58.6411L76.3766 60.384C75.8083 59.3389 75.2345 58.2832 74.4491 57.3866C74.1685 57.0645 73.8627 56.7657 73.6038 56.4257C73.2179 55.8914 72.9131 55.3042 72.6989 54.6827C72.1464 53.2061 71.8307 51.6532 71.7632 50.0802C71.7183 49.633 71.7707 49.1815 71.917 48.756C72.0368 48.5099 72.171 48.2709 72.3188 48.0402C72.8039 47.1759 72.9034 46.1523 72.8944 45.1645C72.8853 44.1767 72.7785 43.1854 72.8944 42.2029C72.9889 41.3827 73.2342 40.5864 73.6183 39.8534C73.8449 39.3787 74.1816 38.9636 74.6011 38.6419C74.9141 38.4102 75.296 38.2874 75.687 38.2929C76.2788 38.3269 76.1431 38.8298 76.1938 39.3147L76.5087 42.4445Z" fill="#3F3D56"/>
<path d="M49.8873 40.0091C49.5181 41.0827 49.1851 42.166 48.8883 43.2587C48.5987 44.3324 48.3399 45.4121 48.1118 46.4977C47.9947 46.975 47.9292 47.4633 47.9164 47.9543C47.9395 48.526 48.0387 49.0922 48.2114 49.6382C49.3769 53.7916 51.5017 57.6228 53.8944 61.225C54.5781 60.382 55.3901 59.6491 56.3015 59.0526C56.3761 59.009 56.4383 58.9474 56.4825 58.8737C56.5054 58.8041 56.5121 58.7303 56.5021 58.6577C56.492 58.5852 56.4655 58.5159 56.4246 58.4549C55.764 57.1164 54.7178 55.9372 54.3885 54.4823C54.2509 53.8775 54.2455 53.2476 54.0898 52.6463C53.8889 51.8679 53.4401 51.1557 53.3369 50.3576C53.2265 49.4879 53.5179 48.5395 53.1053 47.7682C53.9468 47.4443 54.4337 46.5872 54.7902 45.7658C55.1712 44.9255 55.4436 44.0411 55.6011 43.1335C55.8489 41.3935 55.5044 39.6214 54.6219 38.0961C54.1909 37.3353 53.6377 36.6487 52.984 36.0633C52.7686 35.8718 52.26 35.3224 51.9469 35.3278C51.5289 35.3367 51.3949 36.006 51.2755 36.3066C50.7922 37.5342 50.3144 38.7636 49.8873 40.0091Z" fill="#3F3D56"/>
<path d="M57.3838 60.0386C57.4381 60.078 57.4996 60.1317 57.4851 60.1961C57.4707 60.2605 57.4182 60.2766 57.3711 60.3035C57.1264 60.4751 56.9438 60.7197 56.8499 61.0014C56.5491 61.6716 56.2869 62.358 56.0644 63.0575C55.6594 62.4575 55.183 61.9078 54.6454 61.4201C54.2328 61.0443 53.7713 60.6882 53.5505 60.18C53.5505 60.1657 54.4988 59.4732 54.5857 59.398C54.8518 59.1636 55.1866 58.514 55.4617 58.3708C55.773 58.2098 56.0698 58.8415 56.3069 59.0956C56.6331 59.4447 56.9938 59.7607 57.3838 60.0386Z" fill="#FBBEBE"/>
<path d="M72.1017 21.3216C72.089 21.0871 72.0582 20.8277 71.8772 20.6756C71.7184 20.5669 71.527 20.5146 71.3343 20.527C70.2791 20.493 69.1878 20.6684 68.1923 20.3177C67.5372 20.0868 66.9779 19.643 66.339 19.3675C65.7002 19.0919 64.8821 19.0185 64.3663 19.482C63.9753 19.8399 63.8686 20.3893 63.7328 20.8957C63.434 22.0134 62.9019 23.0569 62.1709 23.9593C61.6804 23.8089 61.3293 23.3759 61.1031 22.9214C60.3339 21.3717 60.7121 19.5214 61.2587 17.8786C61.4397 17.3275 61.6406 16.7817 61.8415 16.2377L62.2831 15.0351C62.8627 14.9789 63.4012 14.7139 63.7962 14.2907L63.9862 14.747C64.477 14.7296 64.9507 14.5641 65.3436 14.2728C65.4956 14.5556 65.8866 14.6307 66.2033 14.5395C66.52 14.4482 66.7933 14.2728 67.1082 14.1816C67.9498 13.9131 68.8475 14.3265 69.7307 14.373C70.1045 14.364 70.4785 14.3748 70.851 14.4052C71.8935 14.5717 72.6301 15.5416 72.9487 16.5365C73.1604 17.1986 73.336 18.0128 73.9966 18.2473C74.0111 18.4978 73.5622 18.5461 73.5242 18.7841C73.5198 18.8634 73.5386 18.9424 73.5785 19.0114L74.1848 20.298C73.895 20.3699 73.5901 20.355 73.3089 20.255C73.0356 20.8903 72.1288 21.8065 72.1017 21.3216Z" fill="#192534"/>
<path d="M102.826 24.1221C103.133 25.1033 103.375 26.1034 103.55 27.1159C103.68 27.8746 103.756 28.7175 103.317 29.3509C104.992 26.8582 106.743 24.2903 109.289 22.6816C108.771 22.1257 108.376 21.4681 108.131 20.7516C107.887 20.0352 107.797 19.2758 107.868 18.5228C107.883 18.3725 105.778 19.1581 105.617 19.2476C104.878 19.6538 104.202 20.1584 103.481 20.5933C103.108 20.8169 101.556 21.3466 101.541 21.6669C101.541 21.8727 102.158 22.5026 102.274 22.7192C102.501 23.169 102.686 23.6387 102.826 24.1221Z" fill="#FBBEBE"/>
<path d="M110.614 118.137C110.2 117.849 109.715 117.677 109.21 117.639C108.706 117.602 108.2 117.699 107.747 117.923C106.927 118.341 106.375 119.134 105.63 119.671C104.348 120.591 102.656 120.664 101.156 121.162C100.757 121.294 100.334 121.491 100.166 121.877C100.109 122.04 100.087 122.212 100.099 122.383C100.112 122.555 100.16 122.722 100.24 122.874C100.491 123.427 100.93 123.875 101.481 124.139C102.155 124.458 102.929 124.472 103.675 124.481L110.154 124.556C112.145 124.58 114.149 124.603 116.127 124.848C116.588 124.905 117.088 124.968 117.495 124.744C118.158 124.386 118.234 123.481 118.183 122.735C118.049 120.844 117.622 118.985 116.916 117.223C116.838 117.028 116.735 116.806 116.516 116.77C116.361 116.763 116.208 116.812 116.085 116.906C114.257 117.98 111.942 118.587 109.999 117.728" fill="white"/>
<path d="M113.857 77.2659C113.133 81.4229 113.606 85.6943 114.42 89.8334C114.57 90.6575 114.768 91.4725 115.012 92.2742C115.303 93.1869 115.696 94.0637 115.969 94.9817C116.664 97.308 116.567 99.7954 116.463 102.224L115.989 113.274C115.949 114.201 115.913 115.149 116.196 116.033C116.31 116.391 116.449 116.838 116.161 117.08C116.049 117.16 115.917 117.21 115.779 117.225C114.484 117.461 113.147 117.262 111.979 116.661L111.85 105.498C111.81 102.057 111.769 98.6018 111.233 95.2036C110.808 92.5015 110.069 89.8352 110.02 87.1009C109.97 84.2377 110.679 81.4121 111.403 78.6367C111.559 78.0425 112.127 77.6077 112.594 77.2051C112.757 77.0462 112.955 76.9273 113.173 76.8579C113.39 76.7989 113.723 77.0852 113.857 77.2659Z" fill="#3F3D56"/>
<path opacity="0.1" d="M113.857 77.2659C113.133 81.4229 113.606 85.6943 114.42 89.8334C114.57 90.6575 114.768 91.4725 115.012 92.2742C115.303 93.1869 115.696 94.0637 115.969 94.9817C116.664 97.308 116.567 99.7954 116.463 102.224L115.989 113.274C115.949 114.201 115.913 115.149 116.196 116.033C116.31 116.391 116.449 116.838 116.161 117.08C116.049 117.16 115.917 117.21 115.779 117.225C114.484 117.461 113.147 117.262 111.979 116.661L111.85 105.498C111.81 102.057 111.769 98.6018 111.233 95.2036C110.808 92.5015 110.069 89.8352 110.02 87.1009C109.97 84.2377 110.679 81.4121 111.403 78.6367C111.559 78.0425 112.127 77.6077 112.594 77.2051C112.757 77.0462 112.955 76.9273 113.173 76.8579C113.39 76.7989 113.723 77.0852 113.857 77.2659Z" fill="black"/>
<path d="M100.267 64.2743C99.999 65.3641 100.567 66.4933 100.504 67.6135C100.468 68.2917 100.198 68.9681 100.323 69.6338C100.448 70.2995 100.929 70.8005 101.186 71.4107C101.374 71.9203 101.473 72.4576 101.48 72.9998C101.554 74.3383 101.494 75.684 101.443 77.0172C101.358 79.254 101.295 81.5034 101.594 83.7205C101.854 85.6414 102.382 87.5173 103.163 89.2947C103.399 89.7783 103.595 90.2805 103.747 90.7961C103.847 91.2766 103.914 91.7633 103.946 92.2528C104.118 93.8447 104.551 95.3984 105.226 96.8535C105.687 97.8502 106.493 98.643 106.748 99.7005C106.991 100.713 106.828 101.782 107.003 102.807C107.132 103.568 107.445 104.287 107.619 105.039C107.845 106.01 107.839 107.018 107.953 108.009C108.279 110.872 109.595 113.735 108.81 116.513C108.652 117.071 108.408 117.638 108.518 118.207C108.572 118.486 108.71 118.762 108.648 119.039C108.598 119.276 108.413 119.458 108.319 119.682C108.138 120.101 108.33 120.598 108.652 120.922C108.996 121.224 109.395 121.457 109.828 121.609C111.162 122.173 112.543 122.745 113.991 122.733C114.167 122.742 114.342 122.71 114.503 122.64C114.764 122.506 114.893 122.214 115.003 121.945L115.745 120.131C115.835 119.911 115.926 119.653 115.801 119.449C115.714 119.337 115.609 119.241 115.49 119.163C114.891 118.664 115.026 117.731 115.186 116.981C115.593 115.056 115.818 113.097 115.859 111.13C115.939 107.207 115.285 103.308 114.634 99.4375C114.407 98.0936 114.179 96.7407 113.729 95.4523C113.278 94.1639 112.614 92.9238 112.722 91.5853C112.838 90.1394 112.458 88.6237 112.722 87.1975C112.987 85.7713 113.405 84.3755 113.674 82.9511C114.024 81.1025 114.111 79.2182 114.217 77.3428C114.263 76.577 114.321 75.786 114.683 75.106C114.894 74.7087 115.202 74.3687 115.439 73.984C116.051 72.9837 116.149 71.7436 116.733 70.7272C117.01 70.2458 117.392 69.8217 117.595 69.3063C117.737 68.8998 117.812 68.4731 117.815 68.0429C117.873 66.963 117.812 65.88 117.634 64.8129C114.554 63.2629 111.137 62.4791 107.68 62.5296C106.357 62.551 105.02 62.6835 103.778 63.1362C102.594 63.5711 101.516 64.1813 100.267 64.2743Z" fill="#3F3D56"/>
<path d="M107.687 120.968C107.155 121.623 107.191 122.559 106.851 123.331C106.439 124.266 105.519 124.866 104.647 125.412L99.2172 128.812C98.9203 128.991 98.6018 129.211 98.4932 129.544C98.4416 129.756 98.451 129.979 98.5203 130.186C98.6499 130.635 98.8915 131.045 99.223 131.377C99.5544 131.71 99.965 131.955 100.417 132.09C100.898 132.203 101.391 132.253 101.885 132.239L104.326 132.271C105.07 132.299 105.815 132.271 106.554 132.185C107.231 132.088 107.89 131.897 108.563 131.775C109.789 131.555 111.048 131.575 112.275 131.362C113.027 131.216 113.769 131.026 114.498 130.794C115.385 130.531 116.288 130.258 117.048 129.737C117.257 129.611 117.427 129.43 117.538 129.214C117.667 128.919 117.596 128.581 117.524 128.268L116.358 123.203C116.293 122.782 116.137 122.379 115.902 122.021C115.644 121.681 115.178 121.455 114.775 121.6C114.608 121.675 114.451 121.769 114.306 121.879C113.709 122.268 112.943 122.332 112.237 122.21C111.781 122.13 111.179 122.006 110.811 121.707C110.532 121.48 110.449 121.128 110.212 120.87C110.046 120.701 109.846 120.569 109.624 120.482C109.403 120.394 109.166 120.354 108.928 120.363C108.689 120.372 108.456 120.431 108.242 120.535C108.029 120.64 107.84 120.787 107.687 120.968Z" fill="white"/>
<path d="M104.167 23.4242C107.779 23.4242 110.706 20.5296 110.706 16.9588C110.706 13.3881 107.779 10.4935 104.167 10.4935C100.556 10.4935 97.6281 13.3881 97.6281 16.9588C97.6281 20.5296 100.556 23.4242 104.167 23.4242Z" fill="#FBBEBE"/>
<path d="M99.1231 17.3382C99.7493 16.9911 99.7493 15.9908 100.39 15.6579C101.031 15.3251 101.758 15.9031 102.169 16.4864C102.768 17.3408 103.184 18.3072 103.391 19.3263C103.449 19.6162 103.503 19.933 103.724 20.1352C103.945 20.3374 104.234 20.3624 104.516 20.3911C105.343 20.4722 106.171 20.5462 107 20.613C107.923 20.6863 108.896 20.7454 109.734 20.3535C110.065 20.2073 110.349 19.9747 110.556 19.6807C110.722 19.3983 110.84 19.0913 110.907 18.7716C111.34 17.145 111.776 15.4987 111.812 13.8165C111.827 13.1222 111.765 12.4029 111.427 11.7944C111.229 11.4365 110.94 11.1252 110.858 10.7315C110.777 10.3378 111.039 9.83675 111.452 9.8797C111.079 9.89487 110.707 9.82507 110.366 9.6757C110.038 9.49675 109.796 9.11202 109.912 8.76128C108.992 8.87759 108.323 7.97928 107.606 7.3977C107.489 7.28346 107.332 7.21917 107.168 7.21875C107.042 7.24981 106.92 7.29609 106.806 7.35654C106.444 7.4818 106.066 7.2438 105.695 7.14002C104.699 6.86444 103.434 7.53012 102.696 6.81433C102.766 7.27065 102.2 7.57665 101.733 7.5677C101.266 7.55875 100.785 7.38875 100.343 7.54265C100.407 7.65831 100.444 7.78651 100.452 7.9181C100.46 8.04968 100.439 8.1814 100.389 8.30382C100.34 8.42623 100.264 8.53633 100.166 8.62624C100.069 8.71615 99.9523 8.78365 99.8253 8.82391L100.044 9.29633C99.8187 9.34093 99.6101 9.447 99.4422 9.60257C99.2743 9.75814 99.1538 9.95702 99.0941 10.1768C98.8534 11.1162 98.9131 12.4512 98.971 13.4175C99 13.8416 99.4181 17.179 99.1231 17.3382Z" fill="#192534"/>
<path d="M104.703 25.2924C101.418 28.9447 100.582 34.0859 99.8814 38.9264L98.8498 46.0736C98.5819 47.9275 98.3068 49.7814 98.0733 51.6406C97.9104 52.9129 97.7584 54.205 97.9358 55.4755C98.0751 56.4776 98.4136 57.4439 98.6959 58.4084C99.4306 60.9383 99.7963 63.5588 99.7819 66.1908C100.001 65.5538 100.759 65.2961 101.425 65.153C107.014 63.9541 112.844 64.5697 118.051 66.9084C118.965 64.3763 118.793 61.6062 119.048 58.9292C119.41 55.1122 120.657 51.4134 121.026 47.6036C121.162 46.1845 121.178 44.7583 121.193 43.3321C121.204 42.2853 121.214 41.2277 120.994 40.2023C120.747 39.0678 120.228 38.0102 119.69 36.9813C118.205 34.121 116.554 31.3475 114.746 28.6745C113.836 27.3288 112.887 26.01 111.899 24.718C111.398 24.0631 110.887 23.4153 110.366 22.7746C109.861 22.1537 109.642 21.6151 108.84 21.9873C107.325 22.6887 105.805 24.0666 104.703 25.2924Z" fill="#6C63FF"/>
<path d="M106.585 55.692C105.784 55.7207 104.981 55.6955 104.183 55.6168C103.592 55.5596 102.987 55.4737 102.41 55.6168C102.159 55.6793 101.924 55.7934 101.72 55.9515C101.645 56.0179 101.591 56.1046 101.564 56.201C101.538 56.2974 101.54 56.3993 101.572 56.4942C101.603 56.5892 101.662 56.673 101.74 56.7356C101.819 56.7981 101.915 56.8365 102.015 56.8462L102.634 56.8999C103.027 56.9339 103.436 56.9733 103.742 57.2578C103.867 57.3696 103.947 57.523 103.966 57.689C104.004 58.106 103.639 58.3333 103.311 58.5068C102.845 58.7231 102.415 59.0065 102.033 59.3479C101.735 59.6332 101.547 60.0133 101.503 60.4216C101.502 60.458 101.51 60.4941 101.527 60.5263C101.544 60.5585 101.57 60.5857 101.601 60.6051C101.632 60.6245 101.668 60.6354 101.705 60.6368C101.742 60.6382 101.778 60.63 101.811 60.613C102.535 60.2552 103.007 59.194 103.802 59.3712C103.079 59.5974 102.46 60.0682 102.053 60.7007C101.953 60.8518 101.907 61.0319 101.923 61.2119C101.94 61.3918 102.017 61.5611 102.143 61.6923C102.268 61.8234 102.435 61.9087 102.616 61.9343C102.797 61.96 102.981 61.9244 103.139 61.8335C103.257 61.7654 103.37 61.6907 103.479 61.6098C104.018 61.1789 104.5 60.6836 104.915 60.1353C104.335 61.3431 103.749 62.7568 104.415 63.9576C104.448 64.0236 104.5 64.0787 104.564 64.1162C104.629 64.1537 104.703 64.1719 104.777 64.1687C104.987 64.1473 105.049 63.9522 105.083 63.7804C105.192 63.2275 105.219 62.6441 105.494 62.152C106.131 61.0103 107.702 60.8994 108.898 60.3428C110.333 59.6843 111.316 58.267 111.713 56.7532C111.851 56.3117 111.875 55.8428 111.783 55.3896C111.517 54.3714 110.247 54.1369 109.43 54.6291C108.429 55.2572 107.848 55.6526 106.585 55.692Z" fill="#FBBEBE"/>
<path opacity="0.1" d="M105.315 35.6624C106.581 37.5969 108.78 38.6866 110.666 40.0449C111.126 40.3411 111.528 40.7184 111.85 41.1579C112.326 41.8844 112.393 42.8078 112.295 43.6632C112.172 44.7923 111.805 45.8785 111.441 46.9558L110.65 49.2911C110.149 50.7728 109.631 52.2849 108.677 53.5303C108.433 53.8471 108.149 54.1853 108.16 54.5825C108.181 54.812 108.26 55.0325 108.391 55.2232C108.697 55.7156 109.099 56.1424 109.574 56.4781C110.05 56.8138 110.588 57.0516 111.159 57.1773C111.5 57.2632 111.858 57.2632 112.199 57.1773C112.688 57.0341 113.055 56.6404 113.396 56.2682C115.025 54.4913 116.653 52.6893 117.83 50.6045C118.979 48.5699 119.667 46.3098 120.3 44.0712C120.561 43.247 120.743 42.4005 120.843 41.5426C120.977 39.9321 120.55 38.3216 119.851 36.8667C119.153 35.4119 118.192 34.0949 117.202 32.8154C116.267 31.5586 115.229 30.3807 114.098 29.2937C112.129 27.4738 109.72 26.4037 107.085 27.4362C105.224 28.1663 104.527 29.6892 104.361 31.6397C104.22 33.048 104.555 34.4628 105.315 35.6624Z" fill="black"/>
<path d="M105.973 35.1721C107.24 37.1065 109.441 38.1963 111.325 39.5545C111.784 39.8537 112.183 40.2334 112.503 40.6747C112.979 41.4013 113.046 42.3229 112.949 43.18C112.824 44.3092 112.458 45.3954 112.093 46.4727L111.302 48.799C110.8 50.2807 110.283 51.791 109.329 53.0382C109.086 53.355 108.802 53.6914 108.813 54.0904C108.833 54.3196 108.913 54.5398 109.045 54.7293C109.35 55.222 109.751 55.649 110.227 55.985C110.702 56.321 111.24 56.5591 111.81 56.6852C112.152 56.7711 112.511 56.7711 112.853 56.6852C113.341 56.5438 113.707 56.1483 114.049 55.7779C115.678 53.9992 117.307 52.199 118.483 50.1142C119.633 48.0796 120.32 45.8195 120.954 43.5791C121.215 42.7557 121.397 41.9097 121.497 41.0523C121.631 39.4418 121.204 37.8313 120.507 36.3746C119.81 34.918 118.847 33.6027 117.857 32.3233C116.919 31.0731 115.879 29.9018 114.746 28.8213C112.779 27.0032 110.37 25.9313 107.734 26.9656C105.872 27.6957 105.177 29.2167 105.009 31.1691C104.876 32.572 105.215 33.9791 105.973 35.1721Z" fill="#6C63FF"/>
<path d="M145.993 99.3587C145.995 99.8254 145.946 100.291 145.848 100.747C145.83 100.833 145.81 100.926 145.791 101C145.277 103.038 143.827 104.529 142.097 104.623C142.039 104.623 141.981 104.623 141.916 104.623C140.086 104.623 138.538 103.063 138.028 100.914C138.014 100.857 138.001 100.799 137.988 100.735C137.891 100.278 137.842 99.8128 137.843 99.3462C137.843 96.4347 139.666 94.0762 141.916 94.0762C144.165 94.0762 145.993 96.4526 145.993 99.3587Z" fill="#3F3D56"/>
<path opacity="0.1" d="M145.993 99.3587C145.995 99.8254 145.946 100.291 145.849 100.747C145.83 100.833 145.811 100.926 145.791 101C145.729 101 145.669 101 145.61 101C145.161 100.976 144.716 100.916 144.278 100.821C143.889 100.939 143.492 101.029 143.09 101.089C142.782 101.135 142.471 101.164 142.16 101.175H141.845C141.472 101.175 141.1 101.151 140.73 101.102C140.133 101.023 139.546 100.879 138.98 100.672C138.67 100.774 138.355 100.858 138.035 100.923C138.021 100.865 138.008 100.808 137.995 100.744C137.898 100.287 137.849 99.8218 137.851 99.3552C137.851 96.4437 139.673 94.0852 141.923 94.0852C144.173 94.0852 145.993 96.4526 145.993 99.3587Z" fill="black"/>
<path d="M154.681 89.5417C154.682 88.2605 154.379 86.9969 153.794 85.8536L149.005 87.3263L153.209 84.8819C152.504 83.875 151.579 83.0374 150.503 82.431C149.427 81.8246 148.226 81.4648 146.991 81.3781C146.794 81.083 146.578 80.8009 146.344 80.5335L139.467 82.6504L145.108 79.3703C144.029 78.5514 142.762 78.0082 141.42 77.7886C140.078 77.569 138.702 77.6799 137.414 78.1114C136.125 78.543 134.964 79.2818 134.034 80.2627C133.103 81.2435 132.431 82.4361 132.077 83.7348L137.968 90.44L131.578 85.8697C129.959 87.0049 128.806 88.6774 128.33 90.5825C127.854 92.4875 128.086 94.4982 128.984 96.2483C129.882 97.9984 131.385 99.3714 133.221 100.117C135.057 100.863 137.103 100.931 138.986 100.311C140.689 100.93 142.55 100.981 144.285 100.456C145.494 100.719 146.748 100.711 147.954 100.432C149.16 100.152 150.288 99.6095 151.253 98.8428C152.219 98.0761 152.999 97.105 153.535 96.0011C154.071 94.8972 154.35 93.6885 154.351 92.4639C154.351 92.2849 154.351 92.106 154.333 91.9271C154.568 91.1533 154.685 90.3494 154.681 89.5417Z" fill="#00BFA6"/>
<path opacity="0.1" d="M154.538 91.0592C152.009 90.5852 149.415 90.5525 146.875 90.9625C143.999 91.4332 141.06 92.4675 138.247 91.7123C136.596 91.2685 135.17 90.2414 133.558 89.6705C132.002 89.1338 130.326 89.0347 128.716 89.3842C128.103 90.8349 127.925 92.4296 128.204 93.9776C128.483 95.5256 129.206 96.9615 130.288 98.1138C131.37 99.2661 132.765 100.086 134.306 100.476C135.846 100.865 137.468 100.808 138.976 100.311C140.68 100.93 142.541 100.981 144.276 100.456C145.485 100.719 146.739 100.711 147.945 100.432C149.151 100.152 150.279 99.6096 151.244 98.8428C152.21 98.0761 152.99 97.1051 153.526 96.0012C154.062 94.8972 154.341 93.6885 154.342 92.4639C154.342 92.285 154.342 92.106 154.324 91.9271C154.411 91.6419 154.483 91.3521 154.538 91.0592Z" fill="black"/>
</svg>
